<?xml version="1.0" encoding="UTF-8"?>
<!--Generator: Apple Native CoreSVG 232.5-->
<!DOCTYPE svg
PUBLIC "-//W3C//DTD SVG 1.1//EN"
       "http://www.w3.org/Graphics/SVG/1.1/DTD/svg11.dtd">
<svg version="1.1" xmlns="http://www.w3.org/2000/svg" xmlns:xlink="http://www.w3.org/1999/xlink" width="9.9375" height="12.7266">
 <g>
  <rect height="12.7266" opacity="0" width="9.9375" x="0" y="0"/>
  <path d="M1.03906 12.7266L2.82031 12.7266C3.5 12.7266 3.85938 12.3672 3.85938 11.6797L3.85938 1.03906C3.85938 0.328125 3.5 0 2.82031 0L1.03906 0C0.359375 0 0 0.359375 0 1.03906L0 11.6797C0 12.3672 0.359375 12.7266 1.03906 12.7266ZM6.71875 12.7266L8.49219 12.7266C9.17969 12.7266 9.53125 12.3672 9.53125 11.6797L9.53125 1.03906C9.53125 0.328125 9.17969 0 8.49219 0L6.71875 0C6.03125 0 5.67188 0.359375 5.67188 1.03906L5.67188 11.6797C5.67188 12.3672 6.03125 12.7266 6.71875 12.7266Z" fill="#ffffff" fill-opacity="0.85"/>
 </g>
</svg>
