<svg width="7" height="7" viewBox="0 0 7 7" fill="none" xmlns="http://www.w3.org/2000/svg">
<path fill-rule="evenodd" clip-rule="evenodd" d="M0.46967 0.46967C0.762563 0.176777 1.23744 0.176777 1.53033 0.46967L3.25 2.18934L4.96967 0.46967C5.26256 0.176777 5.73744 0.176777 6.03033 0.46967C6.32322 0.762563 6.32322 1.23744 6.03033 1.53033L4.31066 3.25L6.03033 4.96967C6.32322 5.26256 6.32322 5.73744 6.03033 6.03033C5.73744 6.32322 5.26256 6.32322 4.96967 6.03033L3.25 4.31066L1.53033 6.03033C1.23744 6.32322 0.762563 6.32322 0.46967 6.03033C0.176777 5.73744 0.176777 5.26256 0.46967 4.96967L2.18934 3.25L0.46967 1.53033C0.176777 1.23744 0.176777 0.762563 0.46967 0.46967Z" fill="#8C1B11" style="fill:#8C1B11;fill:color(display-p3 0.5490 0.1059 0.0667);fill-opacity:1;"/>
</svg>
